<svg xmlns="http://www.w3.org/2000/svg" viewBox="0 0 365.32 93.35" height="32"><defs><style>.cls-1{fill:#fff;}</style></defs><g id="Camada_2" data-name="Camada 2"><g id="Camada_1-2" data-name="Camada 1"><path class="cls-1" d="M121.85,72.6V0h13.69V30h27V0H176.2V72.6H162.51V42.42h-27V72.6Z"/><path class="cls-1" d="M184.29,93.35v-11h10a4.85,4.85,0,0,0,3.16-.77A7.13,7.13,0,0,0,199,79.24l1-2.28-21.58-55.8h14.11l12.86,36.72h1.87l12.86-36.72h14.1L210,83.91a16,16,0,0,1-4.82,7.16q-3,2.28-9.49,2.28Z"/><path class="cls-1" d="M237,72.6V21.16h12.86V27.9h1.87a13.48,13.48,0,0,1,4.67-5.13q3.42-2.44,10.37-2.44a19.81,19.81,0,0,1,10.52,2.75,18.7,18.7,0,0,1,7,7.57,24.23,24.23,0,0,1,2.49,11.25V72.6H273.7V42.94c0-3.87-.95-6.78-2.86-8.71s-4.61-2.91-8.14-2.91q-6,0-9.33,4t-3.32,11.15V72.6Z"/><path class="cls-1" d="M292.3,72.6V21.16h13.07V72.6Z"/><path class="cls-1" d="M309.31,72.6,328,46.67,309.52,21.16h15.14l11.72,17.11h1.87L350,21.16h15.15L346.65,46.67,365.32,72.6H350L338.25,55.28h-1.87L324.66,72.6Z"/><polygon class="cls-1" points="24.02 0.54 0 0.54 0 24.56 0 48.58 24.02 72.61 24.02 48.58 48.04 48.58 24.02 24.56 24.02 0.54"/><polygon class="cls-1" points="48.04 0.54 48.04 24.56 48.04 48.58 48.04 72.61 72.06 72.61 72.06 48.58 72.06 24.56 48.04 0.54"/></g></g></svg>
