<svg width="40" height="40" viewBox="0 0 40 40" fill="none" xmlns="http://www.w3.org/2000/svg">
<path fill-rule="evenodd" clip-rule="evenodd" d="M24.0602 5.06842L7.41051 6.29361C6.06796 6.40979 5.6001 7.285 5.6001 8.33424V26.5316C5.6001 27.3492 5.89173 28.048 6.59306 28.982L10.5069 34.0563C11.1498 34.8734 11.7341 35.0482 12.9617 34.9897L32.2969 33.823C33.9322 33.7069 34.4 32.9481 34.4 31.665V11.1925C34.4 10.5292 34.1373 10.3376 33.3632 9.77283C33.3206 9.74176 33.2764 9.70956 33.2307 9.67609L27.9159 5.94338C26.6308 5.01056 26.1048 4.89318 24.0602 5.06842ZM13.4001 10.8567C11.8215 10.9632 11.4628 10.9874 10.5663 10.2596L8.28662 8.45161C8.05411 8.21781 8.17073 7.92616 8.75448 7.86831L24.7613 6.70169C26.1046 6.58478 26.8054 7.05215 27.3315 7.46023L30.0769 9.44349C30.1938 9.50157 30.4854 9.85109 30.1347 9.85109L13.6039 10.843L13.4001 10.8567ZM11.5588 31.4897V14.1093C11.5588 13.3512 11.7925 13.001 12.4931 12.9421L31.4782 11.8343C32.1221 11.776 32.4137 12.1846 32.4137 12.9421V30.206C32.4137 30.9648 32.2966 31.6072 31.2447 31.665L13.0773 32.7155C12.026 32.7733 11.5588 32.4238 11.5588 31.4897ZM29.4936 15.0416C29.6101 15.5671 29.4936 16.092 28.9668 16.1511L28.0914 16.3254V29.1567C27.3315 29.5649 26.6306 29.7983 26.0466 29.7983C25.1116 29.7983 24.8774 29.5064 24.1771 28.632L18.4513 19.65V28.3404L20.2632 28.7489C20.2632 28.7489 20.2632 29.7983 18.8014 29.7983L14.7716 30.0319C14.6545 29.7983 14.7716 29.2155 15.1804 29.0987L16.232 28.8075V17.3172L14.7719 17.2003C14.6548 16.6749 14.9464 15.9173 15.7648 15.8585L20.0879 15.5673L26.0466 24.6662V16.617L24.5274 16.4428C24.4108 15.8004 24.8774 15.334 25.4617 15.2761L29.4936 15.0416Z" fill="#1E2226"/>
</svg>
