<svg width="40" height="40" viewBox="0 0 40 40" fill="none" xmlns="http://www.w3.org/2000/svg">
<path d="M34.1349 18.6538C35.9934 18.6538 37.5 17.1472 37.5 15.2887C37.5 13.4302 35.9933 11.9236 34.1348 11.9236C32.2761 11.9236 30.7693 13.4303 30.7693 15.289V18.6538H34.1349ZM24.7116 18.6538C26.5702 18.6538 28.077 17.147 28.077 15.2884V5.86588C28.077 4.00722 26.5702 2.50049 24.7116 2.50049C22.8529 2.50049 21.3462 4.00722 21.3462 5.86587V15.2884C21.3462 17.147 22.8529 18.6538 24.7116 18.6538Z" fill="#2EB67D"/>
<path d="M5.86506 21.3462C4.00657 21.3462 2.49996 22.8528 2.49996 24.7113C2.49996 26.5698 4.00671 28.0764 5.8652 28.0764C7.72385 28.0764 9.23073 26.5697 9.23073 24.711V21.3462H5.86506ZM15.2884 21.3462C13.4298 21.3462 11.923 22.853 11.923 24.7116V34.1341C11.923 35.9928 13.4298 37.4995 15.2884 37.4995C17.1471 37.4995 18.6538 35.9928 18.6538 34.1341V24.7116C18.6538 22.853 17.1471 21.3462 15.2884 21.3462Z" fill="#E01E5A"/>
<path d="M21.3462 34.1351C21.3462 35.9936 22.8528 37.5002 24.7113 37.5002C26.5698 37.5002 28.0764 35.9934 28.0764 34.1349C28.0764 32.2763 26.5697 30.7694 24.711 30.7694L21.3462 30.7694L21.3462 34.1351ZM21.3462 24.7117C21.3462 26.5703 22.853 28.0771 24.7116 28.0771L34.1341 28.0771C35.9928 28.0771 37.4995 26.5703 37.4995 24.7117C37.4995 22.853 35.9928 21.3463 34.1341 21.3463L24.7116 21.3463C22.853 21.3463 21.3462 22.853 21.3462 24.7117Z" fill="#ECB22E"/>
<path d="M18.6538 5.86494C18.6538 4.00644 17.1472 2.49984 15.2887 2.49984C13.4302 2.49984 11.9236 4.00659 11.9236 5.86508C11.9236 7.72373 13.4303 9.23061 15.289 9.23061L18.6538 9.23061L18.6538 5.86494ZM18.6538 15.2883C18.6538 13.4297 17.147 11.9229 15.2884 11.9229L5.86588 11.9229C4.00722 11.9229 2.50049 13.4297 2.50049 15.2883C2.50049 17.147 4.00722 18.6537 5.86587 18.6537L15.2884 18.6537C17.147 18.6537 18.6538 17.147 18.6538 15.2883Z" fill="#36C5F0"/>
</svg>
