<svg width="40" height="40" viewBox="0 0 40 40" fill="none" xmlns="http://www.w3.org/2000/svg">
<path d="M23.6939 23.7024C21.3194 24.5959 18.6585 24.5975 16.2839 23.7029C15.3892 21.3309 15.389 18.6706 16.2825 16.2982C18.6565 15.4032 21.32 15.403 23.694 16.2981C24.5884 18.6697 24.588 21.3307 23.6939 23.7024ZM37.2567 17.0834H27.035L34.2624 9.86014C33.1281 8.26782 31.7278 6.86907 30.1345 5.73547L22.9066 12.9587V2.74365C20.9775 2.41935 18.9991 2.41984 17.0701 2.74365V12.9587L9.84214 5.73547C8.24924 6.8683 6.84847 8.26898 5.71411 9.86014L12.9426 17.0834H2.72104C2.46873 19.069 2.38675 20.9351 2.72104 22.9166H12.9427L5.71425 30.1399C6.85134 31.7346 8.24642 33.1288 9.84214 34.2651L17.0701 27.0413V37.2569C18.9994 37.58 20.9772 37.5802 22.9064 37.2569V27.0413L30.1351 34.2651C31.729 33.1304 33.1269 31.7328 34.2624 30.1399L27.0339 22.9166H37.2567C37.5811 20.9905 37.5811 19.0095 37.2567 17.0834Z" fill="#FF4A00"/>
</svg>
