<svg width="129" height="33" viewBox="0 0 129 33" fill="none" xmlns="http://www.w3.org/2000/svg">
<g clip-path="url(#clip0_39_109)">
<path d="M43.0271 25.6647V0H47.8612V10.6052H57.3953V0H62.2189V25.6647H57.3848V14.9958H47.8506V25.6647H43.0271Z" fill="#1A1A1A"/>
<path d="M65.0755 33V29.1114H68.6066C68.9988 29.152 69.3929 29.0558 69.7225 28.8392C69.9579 28.6025 70.1439 28.3213 70.2698 28.012L70.6229 27.206L63.0027 7.48024H67.9851L72.5262 20.4611H73.1865L77.7276 7.48024H82.7065L74.1541 29.6629C73.829 30.6467 73.2403 31.5223 72.452 32.194C71.7458 32.7313 70.6288 33 69.101 33H65.0755Z" fill="#1A1A1A"/>
<path d="M83.6882 25.6647V7.48024H88.2293V9.86288H88.8896C89.2718 9.12471 89.8404 8.49951 90.5387 8.04938C91.3438 7.47434 92.5644 7.18682 94.2005 7.18682C95.5051 7.15766 96.7918 7.49439 97.9152 8.15897C98.9734 8.80148 99.8299 9.72875 100.387 10.835C100.995 12.0706 101.297 13.4348 101.266 14.812V25.6647H96.6476V15.1796C96.6476 13.8116 96.3121 12.7829 95.6376 12.1006C94.9632 11.4183 94.0098 11.0719 92.7633 11.0719C91.3508 11.0719 90.2526 11.5432 89.4687 12.4859C88.6848 13.4286 88.294 14.7425 88.2964 16.4275V25.6647H83.6882Z" fill="#1A1A1A"/>
<path d="M103.216 25.6647V7.48024H107.831V25.6647H103.216Z" fill="#1A1A1A"/>
<path d="M109.222 25.6647L115.822 16.4982L109.296 7.48024H114.642L118.781 13.5288H119.441L123.59 7.48024H128.94L122.407 16.4982L129 25.6647H123.59L119.441 19.5419H118.781L114.642 25.6647H109.222Z" fill="#1A1A1A"/>
<path d="M8.48182 0.190894H0V8.68216V17.1734L8.48182 25.6682V17.1734H16.9636L8.48182 8.68216V0.190894Z" fill="#1A1A1A"/>
<path d="M16.9636 0.190894V8.68216V17.1734V25.6682H25.4454V17.1734V8.68216L16.9636 0.190894Z" fill="#1A1A1A"/>
</g>
<defs>
<clipPath id="clip0_39_109">
<rect width="129" height="33" fill="white"/>
</clipPath>
</defs>
</svg>
