<svg width="244" height="58" viewBox="0 0 244 58" fill="none" xmlns="http://www.w3.org/2000/svg">
<g clip-path="url(#clip0_4_2)">
<path d="M81.3845 45.1077V0H90.5282V18.6395H108.562V0H117.685V45.1077H108.542V26.3563H90.5082V45.1077H81.3845Z" fill="white"/>
<path d="M123.089 58V51.1655H129.768C130.51 51.2368 131.255 51.0678 131.878 50.6871C132.324 50.2711 132.675 49.7769 132.914 49.2332L133.582 47.8166L119.168 13.1471H128.592L137.182 35.9619H138.431L147.02 13.1471H156.437L140.261 52.1348C139.646 53.864 138.532 55.4029 137.041 56.5834C135.705 57.5278 133.593 58 130.703 58H123.089Z" fill="white"/>
<path d="M158.294 45.1077V13.1471H166.883V17.3348H168.132C168.855 16.0374 169.931 14.9385 171.251 14.1474C172.774 13.1367 175.083 12.6314 178.178 12.6314C180.645 12.5801 183.079 13.172 185.204 14.34C187.206 15.4693 188.826 17.099 189.879 19.0434C191.03 21.215 191.6 23.6128 191.543 26.0332V45.1077H182.806V26.6794C182.806 24.2749 182.172 22.4669 180.896 21.2677C179.62 20.0686 177.817 19.4597 175.459 19.4597C172.788 19.4597 170.71 20.2881 169.228 21.9449C167.745 23.6018 167.006 25.911 167.01 28.8726V45.1077H158.294Z" fill="white"/>
<path d="M195.229 45.1077V13.1471H203.959V45.1077H195.229Z" fill="white"/>
<path d="M206.59 45.1077L219.074 28.9969L206.731 13.1471H216.843L224.671 23.7778H225.92L233.768 13.1471H243.886L231.53 28.9969L244 45.1077H233.768L225.92 34.3464H224.671L216.843 45.1077H206.59Z" fill="white"/>
<path d="M16.0431 0.33551H0V15.2596V30.1836L16.0431 45.1139V30.1836H32.0863L16.0431 15.2596V0.33551Z" fill="white"/>
<path d="M32.0863 0.33551V15.2596V30.1836V45.1139H48.1294V30.1836V15.2596L32.0863 0.33551Z" fill="white"/>
</g>
<defs>
<clipPath id="clip0_4_2">
<rect width="244" height="58" fill="white"/>
</clipPath>
</defs>
</svg>
