<svg width="36" height="36" viewBox="0 0 36 36" fill="none" xmlns="http://www.w3.org/2000/svg">
<g filter="url(#filter0_d_245_18698)">
<path fill-rule="evenodd" clip-rule="evenodd" d="M21.9289 5.51457L19.7071 3.29274C18.5355 2.12117 16.636 2.12117 15.4645 3.29274L13.2426 5.51457H10.1005C8.44365 5.51457 7.10051 6.85771 7.10051 8.51457V11.6567L4.87868 13.8785C3.70711 15.0501 3.70711 16.9496 4.87868 18.1212L7.10051 20.343V23.4851C7.10051 25.142 8.44365 26.4851 10.1005 26.4851H13.2426L15.4645 28.707C16.636 29.8785 18.5355 29.8785 19.7071 28.707L21.9289 26.4851H25.0711C26.7279 26.4851 28.0711 25.142 28.0711 23.4851V20.343L30.2929 18.1212C31.4645 16.9496 31.4645 15.0501 30.2929 13.8785L28.0711 11.6567V8.51457C28.0711 6.85772 26.7279 5.51457 25.0711 5.51457H21.9289ZM20.8076 7.22167C20.9951 7.40921 21.2495 7.51457 21.5147 7.51457H25.0711C25.6234 7.51457 26.0711 7.96228 26.0711 8.51457V12.0709C26.0711 12.3361 26.1764 12.5905 26.364 12.778L28.8787 15.2927C29.2692 15.6833 29.2692 16.3164 28.8787 16.707L26.364 19.2217C26.1764 19.4092 26.0711 19.6636 26.0711 19.9288V23.4851C26.0711 24.0374 25.6234 24.4851 25.0711 24.4851H21.5147C21.2495 24.4851 20.9951 24.5905 20.8076 24.778L18.2929 27.2927C17.9024 27.6833 17.2692 27.6833 16.8787 27.2927L14.364 24.778C14.1764 24.5905 13.9221 24.4851 13.6569 24.4851H10.1005C9.54822 24.4851 9.10051 24.0374 9.10051 23.4851V19.9288C9.10051 19.6636 8.99515 19.4092 8.80761 19.2217L6.29289 16.707C5.90237 16.3164 5.90237 15.6833 6.29289 15.2927L8.80761 12.778C8.99515 12.5905 9.10051 12.3361 9.10051 12.0709V8.51457C9.10051 7.96228 9.54822 7.51457 10.1005 7.51457H13.6569C13.9221 7.51457 14.1764 7.40921 14.364 7.22167L16.8787 4.70696C17.2692 4.31643 17.9024 4.31643 18.2929 4.70696L20.8076 7.22167Z" fill="white"/>
<path d="M21.5147 7.51457C21.2494 7.51457 20.9951 7.40921 20.8075 7.22167L18.2928 4.70696C17.9023 4.31643 17.2691 4.31643 16.8786 4.70696L14.3639 7.22167C14.1764 7.40921 13.922 7.51457 13.6568 7.51457H10.1004C9.54815 7.51457 9.10044 7.96228 9.10044 8.51457V12.0709C9.10044 12.3361 8.99508 12.5905 8.80754 12.778L6.29282 15.2927C5.9023 15.6833 5.9023 16.3164 6.29282 16.707L8.80754 19.2217C8.99508 19.4092 9.10044 19.6636 9.10044 19.9288V23.4851C9.10044 24.0374 9.54815 24.4851 10.1004 24.4851H13.6568C13.922 24.4851 14.1764 24.5905 14.3639 24.778L16.8786 27.2927C17.2691 27.6833 17.9023 27.6833 18.2928 27.2927L20.8075 24.778C20.9951 24.5905 21.2494 24.4851 21.5147 24.4851H25.071C25.6233 24.4851 26.071 24.0374 26.071 23.4851V19.9288C26.071 19.6636 26.1764 19.4092 26.3639 19.2217L28.8786 16.707C29.2691 16.3164 29.2691 15.6833 28.8786 15.2927L26.3639 12.778C26.1764 12.5905 26.071 12.3361 26.071 12.0709V8.51457C26.071 7.96228 25.6233 7.51457 25.071 7.51457H21.5147Z" fill="#47C2FF"/>
<path fill-rule="evenodd" clip-rule="evenodd" d="M22.9596 13.3737L16.2525 20.0808L12.8787 16.707L14.2929 15.2928L16.2525 17.2524L21.5454 11.9595L22.9596 13.3737Z" fill="white"/>
</g>
<defs>
<filter id="filter0_d_245_18698" x="-2.41413" y="-2" width="40" height="40" filterUnits="userSpaceOnUse" color-interpolation-filters="sRGB">
<feFlood flood-opacity="0" result="BackgroundImageFix"/>
<feColorMatrix in="SourceAlpha" type="matrix" values="0 0 0 0 0 0 0 0 0 0 0 0 0 0 0 0 0 0 127 0" result="hardAlpha"/>
<feOffset dy="2"/>
<feGaussianBlur stdDeviation="2"/>
<feColorMatrix type="matrix" values="0 0 0 0 0.105882 0 0 0 0 0.109804 0 0 0 0 0.113725 0 0 0 0.04 0"/>
<feBlend mode="normal" in2="BackgroundImageFix" result="effect1_dropShadow_245_18698"/>
<feBlend mode="normal" in="SourceGraphic" in2="effect1_dropShadow_245_18698" result="shape"/>
</filter>
</defs>
</svg>
